# xmcd
#
# Track frame offsets:
#	150
#	14205
#	28932
#	46222
#	60680
#	80047
#	97432
#	111237
#	126027
#	141462
#
# Disc length: 2089 seconds
#
# Revision: 1
# Processed by: cddbd v1.5.2PL0 Copyright (c) Steve Scherf et al.
# Submitted via: EasyCDDAExtractor 11.5.3.1
#
DISCID=9b08270a
DTITLE=Cari Schauer - New Beginning
DYEAR=1992
DGENRE=Country
TTITLE0=This old guitar
TTITLE1=Mailman
TTITLE2=New beginning
TTITLE3=My little band
TTITLE4=Grandpa
TTITLE5=Soul shaking man
TTITLE6=Tall bourbon
TTITLE7=Hobo´s meditation
TTITLE8=Keeping on
TTITLE9=Remembering
EXTD=
EXTT0=
EXTT1=
EXTT2=
EXTT3=
EXTT4=
EXTT5=
EXTT6=
EXTT7=
EXTT8=
EXTT9=
PLAYORDER=
